<svg xmlns="http://www.w3.org/2000/svg" viewBox="0 0 384 512" width="24px" height="24px">
  <path fill="black" d="M318.7 268.6c-1.5-37.9 16.6-66.7 51.3-87.5-19.2-28.1-48.3-43.4-86.5-45.1-36.3-1.7-76.3 21.1-90 21.1-14.1 0-54.6-20.5-84.5-20.5-61.8 0-112.8 47.7-112.8 137.7 0 58.4 21.4 120.4 47.6 160.2 22.6 33.9 47.6 72 82 70.5 32.2-1.3 44.4-20.7 83.3-20.7 38.5 0 49.1 20.7 83.4 20.2 34.6-.5 56.4-34.4 77.7-68.6 13.4-21.3 18.9-32.1 29.5-56.1-77.6-29.6-73-105.1-73.1-111.2zM260.1 96c17.8-21.5 15.9-41.5 15.4-48.3-14.8.9-32.3 9.9-42.6 21.5-9.4 10.5-17.7 27.4-15.5 43.5 16.2 1.2 31.4-6.6 42.7-16.7z"/>
</svg>