<svg xmlns="http://www.w3.org/2000/svg" viewBox="0 0 48 48" width="24px" height="24px">
  <path fill="#fbc02d" d="M43.6 20.5H42V20H24v8h11.3C33.9 32 29.3 36 24 36c-6.6 0-12-5.4-12-12s5.4-12 12-12c3.1 0 5.9 1.2 8 3.1l5.7-5.7C33.4 6.2 28.9 4 24 4 12.9 4 4 12.9 4 24s8.9 20 20 20c11 0 19.8-8 20-20 0-.7-.1-1.5-.4-2.5z"/>
  <path fill="#e53935" d="M6.3 14.1l6.6 4.8C14.4 15.4 18.8 12 24 12c3.1 0 5.9 1.2 8 3.1l5.7-5.7C33.4 6.2 28.9 4 24 4 16.3 4 9.5 8.6 6.3 14.1z"/>
  <path fill="#4caf50" d="M24 44c5.2 0 9.9-2 13.4-5.2l-6.2-5.1C29.2 35.3 26.7 36 24 36c-5.2 0-9.7-3.5-11.3-8.2l-6.5 5C9.3 40.3 16.1 44 24 44z"/>
  <path fill="#1565c0" d="M43.6 20.5H42V20H24v8h11.3c-1.3 3.5-4.7 6-8.3 6-2.6 0-5-.9-6.9-2.5l-6.6 5.2C17.2 40.9 20.4 44 24 44c11 0 19.8-8 20-20 0-.7-.1-1.5-.4-2.5z"/>
</svg>